<svg version="1.1" xmlns="http://www.w3.org/2000/svg" viewBox="0 0 93.04539668985626 91.98898152523452" width="93.04539668985626" height="91.98898152523452" class="excalidraw-svg"><!-- svg-source:excalidraw --><metadata></metadata><defs><style class="style-fonts">
      </style></defs><g stroke-linecap="round" transform="translate(1 1) rotate(0 45.52269834492816 44.99449076261726)"><path d="M91.05 44.99 C91.05 47.13, 90.89 49.29, 90.58 51.4 C90.27 53.51, 89.81 55.62, 89.2 57.67 C88.59 59.72, 87.83 61.74, 86.93 63.69 C86.03 65.63, 84.99 67.52, 83.82 69.32 C82.65 71.12, 81.34 72.85, 79.93 74.46 C78.51 76.07, 76.97 77.6, 75.33 79 C73.7 80.4, 71.95 81.69, 70.13 82.85 C68.32 84, 66.4 85.04, 64.43 85.92 C62.47 86.81, 60.42 87.57, 58.35 88.17 C56.28 88.77, 54.14 89.23, 52 89.53 C49.86 89.83, 47.68 89.99, 45.52 89.99 C43.36 89.99, 41.18 89.83, 39.04 89.53 C36.91 89.23, 34.77 88.77, 32.7 88.17 C30.63 87.57, 28.58 86.81, 26.61 85.92 C24.65 85.04, 22.73 84, 20.91 82.85 C19.09 81.69, 17.34 80.4, 15.71 79 C14.08 77.6, 12.53 76.07, 11.12 74.46 C9.7 72.85, 8.39 71.12, 7.23 69.32 C6.06 67.52, 5.01 65.63, 4.11 63.69 C3.22 61.74, 2.45 59.72, 1.84 57.67 C1.24 55.62, 0.77 53.51, 0.46 51.4 C0.16 49.29, 0 47.13, 0 44.99 C0 42.86, 0.16 40.7, 0.46 38.59 C0.77 36.48, 1.24 34.37, 1.84 32.32 C2.45 30.27, 3.22 28.24, 4.11 26.3 C5.01 24.36, 6.06 22.46, 7.23 20.67 C8.39 18.87, 9.7 17.14, 11.12 15.53 C12.53 13.92, 14.08 12.39, 15.71 10.99 C17.34 9.59, 19.09 8.3, 20.91 7.14 C22.73 5.99, 24.65 4.95, 26.61 4.07 C28.58 3.18, 30.63 2.42, 32.7 1.82 C34.77 1.22, 36.91 0.76, 39.04 0.46 C41.18 0.15, 43.36 0, 45.52 0 C47.68 0, 49.86 0.15, 52 0.46 C54.14 0.76, 56.28 1.22, 58.35 1.82 C60.42 2.42, 62.47 3.18, 64.43 4.07 C66.4 4.95, 68.32 5.99, 70.13 7.14 C71.95 8.3, 73.7 9.59, 75.33 10.99 C76.97 12.39, 78.51 13.92, 79.93 15.53 C81.34 17.14, 82.65 18.87, 83.82 20.67 C84.99 22.46, 86.03 24.36, 86.93 26.3 C87.83 28.24, 88.59 30.27, 89.2 32.32 C89.81 34.37, 90.27 36.48, 90.58 38.59 C90.89 40.7, 90.97 43.93, 91.05 44.99 C91.12 46.06, 91.12 43.93, 91.05 44.99" stroke="none" stroke-width="0" fill="#4f5448"></path><path d="M91.05 44.99 C91.05 47.13, 90.89 49.29, 90.58 51.4 C90.27 53.51, 89.81 55.62, 89.2 57.67 C88.59 59.72, 87.83 61.74, 86.93 63.69 C86.03 65.63, 84.99 67.52, 83.82 69.32 C82.65 71.12, 81.34 72.85, 79.93 74.46 C78.51 76.07, 76.97 77.6, 75.33 79 C73.7 80.4, 71.95 81.69, 70.13 82.85 C68.32 84, 66.4 85.04, 64.43 85.92 C62.47 86.81, 60.42 87.57, 58.35 88.17 C56.28 88.77, 54.14 89.23, 52 89.53 C49.86 89.83, 47.68 89.99, 45.52 89.99 C43.36 89.99, 41.18 89.83, 39.04 89.53 C36.91 89.23, 34.77 88.77, 32.7 88.17 C30.63 87.57, 28.58 86.81, 26.61 85.92 C24.65 85.04, 22.73 84, 20.91 82.85 C19.09 81.69, 17.34 80.4, 15.71 79 C14.08 77.6, 12.53 76.07, 11.12 74.46 C9.7 72.85, 8.39 71.12, 7.23 69.32 C6.06 67.52, 5.01 65.63, 4.11 63.69 C3.22 61.74, 2.45 59.72, 1.84 57.67 C1.24 55.62, 0.77 53.51, 0.46 51.4 C0.16 49.29, 0 47.13, 0 44.99 C0 42.86, 0.16 40.7, 0.46 38.59 C0.77 36.48, 1.24 34.37, 1.84 32.32 C2.45 30.27, 3.22 28.24, 4.11 26.3 C5.01 24.36, 6.06 22.46, 7.23 20.67 C8.39 18.87, 9.7 17.14, 11.12 15.53 C12.53 13.92, 14.08 12.39, 15.71 10.99 C17.34 9.59, 19.09 8.3, 20.91 7.14 C22.73 5.99, 24.65 4.95, 26.61 4.07 C28.58 3.18, 30.63 2.42, 32.7 1.82 C34.77 1.22, 36.91 0.76, 39.04 0.46 C41.18 0.15, 43.36 0, 45.52 0 C47.68 0, 49.86 0.15, 52 0.46 C54.14 0.76, 56.28 1.22, 58.35 1.82 C60.42 2.42, 62.47 3.18, 64.43 4.07 C66.4 4.95, 68.32 5.99, 70.13 7.14 C71.95 8.3, 73.7 9.59, 75.33 10.99 C76.97 12.39, 78.51 13.92, 79.93 15.53 C81.34 17.14, 82.65 18.87, 83.82 20.67 C84.99 22.46, 86.03 24.36, 86.93 26.3 C87.83 28.24, 88.59 30.27, 89.2 32.32 C89.81 34.37, 90.27 36.48, 90.58 38.59 C90.89 40.7, 90.97 43.93, 91.05 44.99 C91.12 46.06, 91.12 43.93, 91.05 44.99" stroke="#4f5448" stroke-width="1" fill="none"></path></g><g stroke-linecap="round"><g transform="translate(51.932110287896364 70.94609022652207) rotate(0 7.463897493741342 -26.111917874972278)" fill-rule="evenodd"><path d="M0 0 C3.29 -3.56, 17.38 -17.73, 19.74 -21.36 C22.1 -24.99, 13.78 -20.88, 14.14 -21.78 C14.5 -22.68, 19.4 -24.58, 21.9 -26.78 C24.39 -28.97, 29.19 -33.7, 29.12 -34.93 C29.04 -36.16, 21.07 -33.22, 21.45 -34.15 C21.82 -35.08, 28.84 -37.49, 31.37 -40.5 C33.9 -43.51, 38.9 -51.9, 36.62 -52.21 C34.34 -52.52, 23.13 -46.9, 17.68 -42.35 C12.23 -37.8, 7.04 -28.56, 3.93 -24.92 C0.82 -21.29, 0.7 -20.88, -0.99 -20.55 C-2.67 -20.22, -3.57 -21.28, -6.17 -22.97 C-8.77 -24.65, -13.88 -29.31, -16.56 -30.69 C-19.24 -32.06, -22.07 -31.75, -22.26 -31.2 C-22.45 -30.66, -20.38 -31.25, -17.69 -27.43 C-15.01 -23.61, -9.1 -12.85, -6.15 -8.28 C-3.21 -3.71, -1.03 -1.38, 0 0" stroke="none" stroke-width="0" fill="#ffffff" fill-rule="evenodd"></path><path d="M0 0 C3.29 -3.56, 17.38 -17.73, 19.74 -21.36 C22.1 -24.99, 13.78 -20.88, 14.14 -21.78 C14.5 -22.68, 19.4 -24.58, 21.9 -26.78 C24.39 -28.97, 29.19 -33.7, 29.12 -34.93 C29.04 -36.16, 21.07 -33.22, 21.45 -34.15 C21.82 -35.08, 28.84 -37.49, 31.37 -40.5 C33.9 -43.51, 38.9 -51.9, 36.62 -52.21 C34.34 -52.52, 23.13 -46.9, 17.68 -42.35 C12.23 -37.8, 7.04 -28.56, 3.93 -24.92 C0.82 -21.29, 0.7 -20.88, -0.99 -20.55 C-2.67 -20.22, -3.57 -21.28, -6.17 -22.97 C-8.77 -24.65, -13.88 -29.31, -16.56 -30.69 C-19.24 -32.06, -22.07 -31.75, -22.26 -31.2 C-22.45 -30.66, -20.38 -31.25, -17.69 -27.43 C-15.01 -23.61, -9.1 -12.85, -6.15 -8.28 C-3.21 -3.71, -1.03 -1.38, 0 0 M0 0 C3.29 -3.56, 17.38 -17.73, 19.74 -21.36 C22.1 -24.99, 13.78 -20.88, 14.14 -21.78 C14.5 -22.68, 19.4 -24.58, 21.9 -26.78 C24.39 -28.97, 29.19 -33.7, 29.12 -34.93 C29.04 -36.16, 21.07 -33.22, 21.45 -34.15 C21.82 -35.08, 28.84 -37.49, 31.37 -40.5 C33.9 -43.51, 38.9 -51.9, 36.62 -52.21 C34.34 -52.52, 23.13 -46.9, 17.68 -42.35 C12.23 -37.8, 7.04 -28.56, 3.93 -24.92 C0.82 -21.29, 0.7 -20.88, -0.99 -20.55 C-2.67 -20.22, -3.57 -21.28, -6.17 -22.97 C-8.77 -24.65, -13.88 -29.31, -16.56 -30.69 C-19.24 -32.06, -22.07 -31.75, -22.26 -31.2 C-22.45 -30.66, -20.38 -31.25, -17.69 -27.43 C-15.01 -23.61, -9.1 -12.85, -6.15 -8.28 C-3.21 -3.71, -1.03 -1.38, 0 0" stroke="transparent" stroke-width="1" fill="none"></path></g></g><mask></mask></svg>